<?xml version="1.0" encoding="UTF-8" standalone="no"?>
<!-- Mazela (mazelinha) - mascote do tutorial. Sprite 8x8, sem fundo. -->
<svg xmlns="http://www.w3.org/2000/svg" width="8" height="8" viewBox="0 0 8 8" preserveAspectRatio="xMidYMid meet" shape-rendering="crispEdges">
	<g fill="#ffffff">
		<rect x="3" y="1" width="1" height="1"/>
		<rect x="4" y="1" width="1" height="1"/>
		<rect x="2" y="2" width="1" height="1"/>
		<rect x="3" y="2" width="1" height="1"/>
		<rect x="4" y="2" width="1" height="1"/>
		<rect x="5" y="2" width="1" height="1"/>
		<rect x="1" y="3" width="1" height="1"/>
		<rect x="3" y="3" width="1" height="1"/>
		<rect x="4" y="3" width="1" height="1"/>
		<rect x="6" y="3" width="1" height="1"/>
		<rect x="1" y="4" width="1" height="1"/>
		<rect x="2" y="4" width="1" height="1"/>
		<rect x="5" y="4" width="1" height="1"/>
		<rect x="6" y="4" width="1" height="1"/>
		<rect x="2" y="5" width="1" height="1"/>
		<rect x="3" y="5" width="1" height="1"/>
		<rect x="4" y="5" width="1" height="1"/>
		<rect x="5" y="5" width="1" height="1"/>
		<rect x="2" y="6" width="1" height="1"/>
		<rect x="3" y="6" width="1" height="1"/>
		<rect x="4" y="6" width="1" height="1"/>
		<rect x="5" y="6" width="1" height="1"/>
		<rect x="2" y="7" width="1" height="1"/>
		<rect x="5" y="7" width="1" height="1"/>
	</g>
	<g fill="#000000">
		<rect x="2" y="3" width="1" height="1"/>
		<rect x="5" y="3" width="1" height="1"/>
		<rect x="3" y="4" width="1" height="1"/>
		<rect x="4" y="4" width="1" height="1"/>
	</g>
</svg>
